<svg xmlns="http://www.w3.org/2000/svg" viewBox="0 0 32 32" width="32" height="32" fill="none">
  <rect width="32" height="32" rx="7" fill="#08090d" stroke="#2a0d14" stroke-width="1.2" />
  <g stroke="#ff2d20" stroke-width="1.6" stroke-linecap="round" stroke-linejoin="round" fill="none">
    <!-- Left Pillar Top Diamond -->
    <polygon points="8,4.5 13.5,7.7 8,10.9 2.5,7.7" fill="rgba(255, 45, 32, 0.18)" />
    <!-- Left Pillar Left Wall -->
    <polygon points="2.5,7.7 8,10.9 8,21.3 2.5,18.1" fill="rgba(255, 45, 32, 0.06)" />
    <!-- Left Pillar Right Wall -->
    <polygon points="8,10.9 13.5,7.7 13.5,14.5 8,17.7" fill="rgba(255, 45, 32, 0.1)" />
    
    <!-- Right Pillar Top Diamond -->
    <polygon points="23.5,6.5 29,9.7 23.5,12.9 18,9.7" fill="rgba(255, 45, 32, 0.18)" />
    <!-- Right Pillar Left Wall -->
    <polygon points="18,9.7 23.5,12.9 23.5,19.7 18,16.5" fill="rgba(255, 45, 32, 0.08)" />
    <!-- Right Pillar Right Wall -->
    <polygon points="29,9.7 23.5,12.9 23.5,19.7 29,16.5" fill="rgba(255, 45, 32, 0.06)" />
    
    <!-- Connecting Lower Bridge -->
    <polygon points="8,17.7 18,11.9 23.5,15.1 13.5,20.9" fill="rgba(255, 45, 32, 0.12)" />
    <polygon points="8,21.3 13.5,24.5 13.5,27.7 8,24.5" fill="rgba(255, 45, 32, 0.06)" />
    <polygon points="13.5,24.5 23.5,18.7 23.5,21.9 13.5,27.7" fill="rgba(255, 45, 32, 0.08)" />
    <line x1="8" y1="17.7" x2="8" y2="21.3" />
    <line x1="13.5" y1="20.9" x2="13.5" y2="24.5" />
    <line x1="23.5" y1="15.1" x2="23.5" y2="18.7" />
  </g>
</svg>
